<svg width="1121.00005" height="607.96199" xmlns="http://www.w3.org/2000/svg">
 <title>source_code</title>

 <g>
  <title>background</title>
  <rect fill="none" id="canvas_background" height="602" width="802" y="-1" x="-1"/>
 </g>
 <g>
  <title>Layer 1</title>
  <path id="svg_1" fill="#3f3d56" d="m166.647921,398.685673a92.17222,92.17222 0 0 1 32.02368,-16.68392c32.65823,-9.34364 66.44317,-0.29958 99.11525,8.44757c17.6391,4.72171 35.87786,9.60454 53.86608,11.6155c28.82416,3.22318 55.69008,-1.27495 77.69306,-13.0071c24.729,-13.18383 42.54045,-35.87523 47.64829,-60.69279a70.48407,70.48407 0 0 0 1.28593,-9.521q-3.65463,2.25441 -7.33528,4.44022c-25.80935,15.32748 -62.0852,29.65826 -88.32908,10.88062c-10.07437,-7.20721 -16.61059,-19.25066 -17.93452,-33.0403c-1.41783,-14.77612 3.3362,-29.50912 12.71615,-39.40907a47.998,47.998 0 0 1 4.90566,-4.50207c19.01181,-15.17609 49.02343,-15.99439 70.07515,-0.995c17.82789,12.70265 28.38926,35.65507 28.05028,58.93481a524.84185,524.84185 0 0 0 44.16619,-30.97039l1.23084,1.57655a526.67316,526.67316 0 0 1 -45.47066,31.79851a72.51073,72.51073 0 0 1 -1.40193,11.21038c-5.22638,25.39384 -23.41987,48.59132 -48.66557,62.05449c-22.36144,11.92331 -49.62963,16.49823 -78.857,13.23013c-18.13781,-2.02774 -36.45006,-6.93064 -54.16067,-11.6715c-33.90127,-9.07553 -65.922,-17.64846 -98.04825,-8.457c-32.29131,9.23821 -58.37466,37.579 -64.90838,70.52114c-6.53632,32.94354 6.75568,69.09513 33.07392,89.95877l-1.24263,1.56781c-26.89056,-21.31772 -40.47084,-58.2563 -33.7937,-91.91573c4.31543,-21.75418 16.97615,-41.5453 34.29719,-55.37063zm311.75247,-82.2679c0.75634,-23.07932 -9.54778,-46.0053 -27.18335,-58.57032c-22.18626,-15.80879 -54.652,-13.45341 -72.36735,5.24286c-8.98829,9.48739 -13.54065,23.634 -12.17693,37.84291c1.2683,13.2143 7.503,24.73436 17.10678,31.60559c25.366,18.1489 60.84664,4.04919 86.14458,-10.97506q4.25478,-2.5263 8.47627,-5.14598z"/>
  <ellipse id="svg_2" fill="#3f3d56" ry="13" rx="278.5" cy="555.96199" cx="278.5"/>
  <ellipse id="svg_3" fill="#3f3d56" ry="13" rx="99" cy="594.96199" cx="268"/>
  <path id="svg_4" fill="#ffb8b8" d="m185.500031,283.462003l0,8s-9.02334,41.82913 5,40c23,-3 6,-37 6,-37l0,-7l-11,-4z"/>
  <polygon id="svg_5" fill="#ffb8b8" points="297.5 508.462 306.5 533.462 328.5 525.462 318.5 502.462 297.5 508.462"/>
  <polygon id="svg_6" fill="#ffb8b8" points="242.5 533.462 236.5 555.462 259.5 562.462 260.5 539.462 242.5 533.462"/>
  <path id="svg_7" fill="#2f2e41" d="m222.500031,281.462003l-2,11s-1,8 0,13s73,212 73,212l31,-12l-40,-131l-5,-101l-57,8z"/>
  <path id="svg_8" fill="#2f2e41" d="m261.500031,279.462003l-4,148s-9,10 -7,17s-5,65 -5,65l-6,29l26,8s5,-26 9,-29s27,-93 27,-99s17,-139 17,-139l-42,-17l-15,17z"/>
  <path id="svg_9" fill="#2f2e41" d="m308.500031,517.462003s-11,-12 -17,0a242.98906,242.98906 0 0 1 -15,25s-32,19 0,24c0,0 18,1 27,-5s33,-15 33,-17s-6,-31.4 -12,-28.2s-16,1.2 -16,1.2z"/>
  <path id="svg_10" fill="#2f2e41" d="m253.500031,550.462003s-9,-13 -17,-4s-18,35 -18,35s-18,27 10,26s30,-11 30,-11s4,-26 4,-27s-2,-11.27953 -2,-11.27953l-7,-7.72047z"/>
  <circle id="svg_11" fill="#ffb8b8" r="28" cy="45.96199" cx="247"/>
  <path id="svg_12" fill="#ffb8b8" d="m232.500031,63.462003l4,32l12,30l26,-31l0,-15s-8,-12 -6,-22l-36,6z"/>
  <path id="svg_13" fill="#d0cde1" d="m246.500031,102.462003l-14,-6l-15,177l3,11s8,5 33,1s66,-1 66,-1l3,-91l-49,-107l-27,16z"/>
  <path id="svg_14" fill="#575a89" d="m221.500031,277.462003s19,-165 18,-168s-18,-11.12343 -18,-11.12343s-29,19.12343 -28,26.12343s19,155 19,155l9,-2z"/>
  <path id="svg_15" fill="#575a89" d="m297.500031,265.462003s-30,-117 -31,-143s-1,-29 -1,-29s46,-16 62,0l3,84s5,36 3,47a123.84612,123.84612 0 0 1 -6,21s11,11 1,14s-17,-2 -21,3s-10,3 -10,3z"/>
  <path id="svg_16" fill="#575a89" d="m200.500031,118.462003s-12,0 -11,14s0,79 0,79s-9,55 -6,59s-1,17 -1,17l18,4s2,-14 6,-15s10,-30 10,-30l-16,-128z"/>
  <path id="svg_17" fill="#ffb8b8" d="m335.500031,241.462003l-4.592,8.349s-31.4962,25.082 -15.95213,34.36653s30.54413,-24.71553 30.54413,-24.71553l5,-9l-15,-9z"/>
  <path id="svg_18" fill="#575a89" d="m313.500031,91.462003l14,2s16,11 17,17s33,61 33,61a32.54943,32.54943 0 0 1 3,13c0,7 -11,60 -17,61s-10,11 -10,11l-21,-13a51.04342,51.04342 0 0 1 1,-9c1,-5 5,-15 5,-15l6,-21a7.5,7.5 0 0 1 -3,-6c0,-4 -17,-25 -17,-25l-11,-76z"/>
  <path id="svg_19" fill="#d0cde1" d="m243.383791,112.671473s-25.88376,-7.20947 -23.88376,-12.20947s4,-6 4,-6s3,-8 6,-8s5.568,-2.45633 5.568,-2.45633l11.432,18.45633l-3.11624,10.20947z"/>
  <path id="svg_20" fill="#d0cde1" d="m271.514951,73.962003s9.98505,-2.5 13.98505,0.5s7,3 8,5s14,4 10,7s-57,16 -57,16l25,-18l0.01495,-10.5z"/>
  <path id="svg_21" fill="#2f2e41" d="m274.636031,16.169093a34.51473,34.51473 0 0 0 -19.6333,-15.00922l-6.0027,4.80213l2.33374,-5.60114a31.773,31.773 0 0 0 -5.93286,-0.34289l-5.40088,6.94403l2.23536,-6.70618a34.18477,34.18477 0 0 0 -23.58228,14.0274c-6.874,9.91169 -6.41394,23.68958 0.34692,33.67878c1.856,-5.7035 2.48853,-11.0492 4.34449,-16.75275a16.88165,16.88165 0 0 0 4.39746,0.02142l2.25805,-5.26867l0.63074,5.04583c6.99866,-0.6098 17.3794,-1.94842 24.01441,-3.175l-0.64515,-3.87083l3.86,3.21667c2.03284,-0.468 3.23975,-0.89233 3.14,-1.21667c4.93457,7.95514 9.824,13.03625 14.75843,20.99133c1.87314,-11.22095 5.1799,-20.54816 -1.12243,-30.78424z"/>
  <ellipse id="svg_22" fill="#ffb8b8" ry="4" rx="2" cy="41.96199" cx="273"/>
  <path id="svg_23" fill="#3f3d56" d="m104.219911,555.693323l-1.07324,-0.40235c-0.23584,-0.08886 -23.7085,-9.082 -34.7041,-29.47363c-10.99609,-20.39258 -5.61182,-44.94531 -5.55615,-45.19043l0.25342,-1.11816l1.07275,0.40234c0.23584,0.08887 23.708,9.082 34.7041,29.47363c10.99609,20.39258 5.61182,44.94532 5.55615,45.19043l-0.25293,1.11817zm-33.76367,-31.94337c9.29639,17.24121 27.84522,26.0791 32.54492,28.09668c0.89356,-5.03711 3.6958,-25.40625 -5.59228,-42.63086c-9.28711,-17.22265 -27.84326,-26.07422 -32.54492,-28.09668c-1.14693,6.15821 -3.94825,26.5254 5.33935,43.74903l0.25293,-1.11817z"/>
  <path id="svg_24" fill="#6c63ff" d="m76.845761,518.664293c19.76056,11.88861 27.371,35.50267 27.371,35.50267s-24.42779,4.33881 -44.18835,-7.5498s-27.371,-35.50267 -27.371,-35.50267s24.42778,-4.33881 44.18835,7.5498z"/>
  <path stroke="null" id="svg_25" fill="#3f3d56" d="m558.999929,272.799995l418.464743,0c79.272401,0 143.535383,-44.783391 143.535383,-123.355167l0,-0.00029c0,-78.571776 -64.262964,-111.320506 -143.535383,-111.320506l-131.393986,0c-158.544802,0 -287.070757,77.532129 -287.070757,234.675681l0,0.000281z"/>
  <path id="svg_26" fill="#6c63ff" d="m938.663091,275.821373l-380.49414,0l0,-1c0,-68.02539 26.50391,-124.06933 76.64648,-162.07373c46.30371,-35.09473 110.168,-53.645 184.68946,-53.645l119.1582,0c38.00488,0 70.03027,8.35059 92.61621,24.14844c25.58106,17.894 38.55176,44.37451 38.55176,78.70508c0,34.50439 -13.31055,63.6084 -38.49317,84.166c-23.45996,19.15234 -56.37207,29.69921 -92.6748,29.69921zm-378.49219,-2l378.49219,0c77.25977,0 129.168,-44.95508 129.168,-111.86474c0,-64.09424 -47.08008,-100.854 -129.168,-100.854l-119.1582,0c-125.10352,-0.00001 -258.76368,55.91308 -259.33399,212.71874z"/>
  <rect id="svg_27" fill="#6c63ff" height="13" width="54" y="125.96199" x="701"/>
  <rect id="svg_28" fill="#6c63ff" height="13" width="19" y="125.96199" x="923"/>
  <rect id="svg_29" fill="#6c63ff" height="13" width="19" y="125.96199" x="961"/>
  <rect id="svg_30" fill="#6c63ff" height="13" width="129" y="125.96199" x="774"/>
  <rect id="svg_31" fill="#6c63ff" height="13" width="54" y="209.96199" x="633"/>
  <rect id="svg_32" fill="#6c63ff" height="13" width="19" y="209.96199" x="855"/>
  <rect id="svg_33" fill="#6c63ff" height="13" width="19" y="209.96199" x="893"/>
  <rect id="svg_34" fill="#6c63ff" height="13" width="129" y="209.96199" x="706"/>
  <rect id="svg_35" fill="#6c63ff" height="13" width="54" y="154.96199" x="856"/>
  <rect id="svg_36" fill="#6c63ff" height="13" width="54" y="154.96199" x="929"/>
  <rect id="svg_37" fill="#6c63ff" height="13" width="19" y="154.96199" x="1002"/>
  <rect id="svg_38" fill="#6c63ff" height="13" width="19" y="154.96199" x="633"/>
  <rect id="svg_39" fill="#6c63ff" height="13" width="19" y="154.96199" x="671"/>
  <rect id="svg_40" fill="#6c63ff" height="13" width="129" y="154.96199" x="709"/>
  <rect id="svg_41" fill="#6c63ff" transform="rotate(-180 1581.5,524.9429931640625) " height="13" width="54" y="853.923993" x="2364.99997"/>
  <rect id="svg_42" fill="#6c63ff" transform="rotate(-180 1435.5,524.9429931640625) " height="13" width="54" y="853.923993" x="2145.99997"/>
  <rect id="svg_43" fill="#6c63ff" transform="rotate(-180 1324.5,524.9429931640624) " height="13" width="19" y="853.923993" x="1996.99997"/>
  <rect id="svg_44" fill="#6c63ff" transform="rotate(-180 2062.5,524.9429931640625) " height="13" width="19" y="853.923993" x="3103.99997"/>
  <rect id="svg_45" fill="#6c63ff" transform="rotate(-180 1986.5,524.9429931640625) " height="13" width="19" y="853.923993" x="2989.99997"/>
  <rect id="svg_46" fill="#6c63ff" transform="rotate(-180 1800.5,524.9429931640625) " height="13" width="129" y="853.923993" x="2655.99997"/>
  <rect id="svg_47" fill="#6c63ff" height="15" width="19" y="536.96199" x="152"/>
  <rect id="svg_48" fill="#6c63ff" height="15" width="19" y="580.96199" x="309"/>
  <text font-style="italic" xml:space="preserve" text-anchor="start" font-family="Helvetica, Arial, sans-serif" font-size="24" id="svg_49" y="354" x="715" stroke-width="0" stroke="#000" fill="#000000">Hey This is Yaswanth Kota!</text>
  <text opacity="0.55" font-weight="bold" xml:space="preserve" text-anchor="start" font-family="Junction, sans-serif" font-size="24" id="svg_50" y="410.958588" x="576.000116" stroke-width="0" stroke="#000" fill="#000000">Student | Programmer | Full Stack Developer</text>
 </g>
</svg>